<svg width="35" height="24" viewBox="0 0 35 24" fill="none" xmlns="http://www.w3.org/2000/svg">
<rect x="0.5" y="0.5" width="34" height="23" rx="3.5" fill="white" stroke="#D9D9D9"/>
<path d="M21.5886 12.8353C21.5019 13.5572 22.35 13.4715 22.6521 13.1695C22.8754 12.9463 22.9377 12.548 22.9882 12.2251C22.9898 12.215 22.9914 12.2049 22.993 12.195C22.3 12.1084 21.6607 12.2358 21.5886 12.8353Z" fill="#B82126"/>
<path d="M26.1562 12.7518C26.1652 13.1653 26.3615 13.4148 26.7561 13.4061C27.4725 13.3904 27.5902 12.5985 27.6993 11.8644C27.7308 11.6521 27.7616 11.4447 27.806 11.2622C27.5905 11.1871 27.3775 11.1173 27.0834 11.1508C26.4516 11.223 26.1405 12.0276 26.1562 12.7518Z" fill="#B82126"/>
<path d="M11.9081 12.9467C11.9685 13.5174 12.7397 13.5226 13.0534 13.1834C13.3131 12.9025 13.5287 12.2081 13.4488 11.652C13.3567 11.0115 12.4488 11.058 12.1398 11.4432C12.1137 11.5762 12.0918 11.7165 12.069 11.8618C12.0528 11.9659 12.0361 12.0725 12.0171 12.1811C12.0045 12.2537 11.9881 12.3267 11.9718 12.3995C11.9305 12.5843 11.8892 12.7686 11.9081 12.9467Z" fill="#B82126"/>
<path d="M12.1398 11.0952C12.1443 11.0913 12.1491 11.0875 12.1538 11.0836C12.1547 11.0932 12.1475 11.0944 12.1398 11.0952Z" fill="#B82126"/>
<path d="M14.9213 11.833H16.2984C16.4232 11.2953 16.1208 11.1205 15.6985 11.1369C15.2497 11.1545 14.9649 11.5098 14.9213 11.833Z" fill="#B82126"/>
<path fill-rule="evenodd" clip-rule="evenodd" d="M8.61373 6H31C30.544 8.29484 30.0966 10.5388 29.651 12.7737C29.5546 13.2571 29.4583 13.74 29.362 14.223C29.3407 14.3298 29.3194 14.437 29.2981 14.5444C29.1803 15.1378 29.0617 15.7349 28.9388 16.2718C28.6263 17.6366 27.4699 18 25.7857 18H4C4.26065 16.7275 4.51273 15.4272 4.76636 14.1189C5.07577 12.5229 5.38749 10.915 5.7199 9.33103C5.76108 9.13483 5.79805 8.93459 5.83508 8.73393C5.90506 8.35486 5.9753 7.9743 6.0748 7.61673C6.36663 6.56817 7.37731 6.05969 8.61373 6ZM21.6287 11.1388C21.6539 11.0383 21.679 10.9378 21.6977 10.8307C21.8223 10.827 21.9645 10.8153 22.1142 10.8029C22.7983 10.7465 23.6392 10.6771 23.6747 11.304C23.6879 11.5361 23.6342 11.7879 23.579 12.0469C23.5548 12.1602 23.5304 12.2748 23.5111 12.3898C23.5081 12.408 23.505 12.4262 23.502 12.4443C23.4311 12.8667 23.3662 13.2533 23.3611 13.7263H22.8566C22.8487 13.5557 22.8725 13.4176 22.8976 13.2809C22.6559 13.6759 21.958 13.9634 21.3841 13.7124C21.0862 13.5821 20.9306 13.115 21.0705 12.6404C21.2793 11.9319 22.0733 11.7666 23.0475 11.8608L23.0486 11.8579C23.0917 11.7358 23.1499 11.5707 23.1157 11.4153C23.0119 10.9439 21.9346 11.2154 21.5886 11.304C21.6013 11.2482 21.615 11.1935 21.6287 11.1388ZM27.8606 10.8724C27.9476 10.4602 28.0148 10.0276 28.065 9.57773H28.6514C28.5865 9.95472 28.5153 10.3254 28.4442 10.696C28.2576 11.6678 28.0711 12.6397 27.9969 13.7263H27.4652C27.4673 13.6097 27.4844 13.5083 27.5015 13.407C27.5078 13.3698 27.5141 13.3326 27.5196 13.2947C27.5124 13.2704 27.4835 13.3183 27.4538 13.3674C27.4387 13.3924 27.4234 13.4176 27.4106 13.434C27.3601 13.4986 27.2823 13.5917 27.2061 13.6428C26.8126 13.907 26.0331 13.8318 25.7608 13.5175C25.6029 13.335 25.5594 13.0793 25.5563 12.8214C25.5404 11.488 26.4224 10.4076 27.8606 10.8724ZM12.1538 11.0836C12.416 10.8675 13.0208 10.6403 13.517 10.8307C14.538 11.2223 13.9509 13.2225 13.1897 13.6428C12.8208 13.8464 11.9465 13.9472 11.8126 13.42C11.7319 13.7625 11.6802 14.1345 11.6284 14.5064C11.6044 14.6789 11.5804 14.8514 11.5535 15.021H10.9673C11.2304 13.6469 11.4797 12.2587 11.6899 10.8307H12.1944C12.1922 10.8771 12.1831 10.9165 12.1739 10.9559C12.1648 10.9953 12.1557 11.0348 12.1535 11.0813C12.1537 11.0821 12.1537 11.0828 12.1538 11.0836ZM14.7032 11.2065C14.9577 10.9328 15.3158 10.8083 15.7394 10.775C16.2226 10.737 16.6975 10.8393 16.8301 11.2344C16.9057 11.4591 16.8597 11.7014 16.8151 11.9364C16.8003 12.0144 16.7856 12.0916 16.7756 12.1671C16.1425 12.1505 15.4854 12.1466 14.8532 12.1671C14.755 12.5946 14.7567 13.0866 15.0577 13.2809C15.4562 13.5381 16.129 13.3315 16.5166 13.1834C16.507 13.2431 16.4953 13.3007 16.4837 13.3583C16.4642 13.4545 16.4448 13.5508 16.4348 13.6567C15.4941 13.8905 14.318 13.9251 14.2123 12.9606C14.1382 12.2846 14.391 11.5423 14.7032 11.2065ZM10.5719 10.8724C10.5707 10.8527 10.5696 10.833 10.5855 10.8307H11.1718C10.9695 11.7611 10.8082 12.7332 10.6673 13.7263H10.081C10.2679 12.7987 10.4427 11.8588 10.5719 10.8724ZM24.7655 11.29C24.934 11.0239 25.3654 10.5801 25.8836 10.8446C25.8606 10.9203 25.8468 11.0055 25.833 11.0907C25.8235 11.1489 25.8141 11.2071 25.8018 11.2622C24.884 10.9972 24.7 11.8786 24.5746 12.6822C24.5591 12.7818 24.5425 12.8749 24.5264 12.9651C24.4817 13.2158 24.4411 13.4441 24.4383 13.7263H23.8383C24.0347 12.7899 24.2031 11.8249 24.3428 10.8307H24.8609C24.8394 10.898 24.8277 10.9753 24.8159 11.0525C24.8031 11.1359 24.7904 11.2192 24.7655 11.29ZM19.2435 12.4873C19.23 12.6662 19.244 12.9016 19.298 13.0442C19.484 13.5346 20.284 13.4193 20.7024 13.1973C20.6895 13.2602 20.6788 13.3253 20.6681 13.3905C20.654 13.4764 20.6399 13.5622 20.6206 13.6428C19.8548 13.9129 18.909 13.8745 18.6981 13.1695C18.5178 12.5669 18.7728 11.6093 19.1617 11.1926C19.5589 10.767 20.3082 10.6851 21.0978 10.8168C21.0894 10.8813 21.0792 10.9438 21.0689 11.0063C21.0537 11.0987 21.0385 11.1912 21.0296 11.29C20.5482 11.1182 19.9446 11.0676 19.6389 11.3736C19.4173 11.5953 19.2738 12.085 19.2435 12.4873ZM17.8528 11.3179C18.0423 10.9786 18.4509 10.6163 18.9708 10.8307C18.9639 10.8968 18.9514 10.9573 18.9389 11.0178C18.923 11.0953 18.907 11.1728 18.9026 11.2622C18.3525 11.0617 17.9712 11.4293 17.8255 11.8608C17.6953 12.2466 17.64 12.7452 17.589 13.2044C17.5687 13.3879 17.549 13.5651 17.5256 13.7263H16.9392C16.9629 13.5994 16.9868 13.4726 17.0106 13.3458C17.1655 12.5228 17.3203 11.6998 17.4301 10.8307H17.9482C17.9342 10.8949 17.923 10.9619 17.9118 11.0289C17.8951 11.1283 17.8785 11.2277 17.8528 11.3179ZM9.24933 11.304C9.34394 10.7602 9.43828 10.2161 9.52203 9.66124H10.2038C9.93561 10.9838 9.70939 12.3492 9.49477 13.7263H8.82665C8.88662 13.338 8.9567 12.9601 9.02677 12.5821C9.07968 12.2968 9.13259 12.0114 9.18114 11.7216C8.6847 11.6734 8.07697 11.6894 7.54322 11.7035C7.48841 11.7049 7.43439 11.7064 7.38135 11.7077C7.26343 12.2613 7.17473 12.8447 7.08602 13.4282C7.0709 13.5276 7.05578 13.627 7.04052 13.7263H6.37245C6.55443 12.8016 6.71294 11.853 6.87145 10.9043C6.94079 10.4893 7.01013 10.0743 7.08144 9.66124H7.73585C7.68157 9.92439 7.63474 10.1951 7.58791 10.4659C7.53992 10.7433 7.49194 11.0208 7.43594 11.29C7.90285 11.3256 8.39155 11.3175 8.87821 11.3094C9.00218 11.3073 9.12602 11.3053 9.24933 11.304ZM11.2809 9.66124C11.4528 9.81713 11.3023 10.1916 11.1854 10.2738C11.1111 10.3261 10.8608 10.3862 10.7491 10.2738C10.6344 10.1584 10.7023 9.84778 10.7764 9.74476C10.8225 9.6807 10.8903 9.63983 11.0082 9.61951C11.1353 9.59756 11.2264 9.61189 11.2809 9.66124Z" fill="#B82126"/>
</svg>
