<svg width="23" height="23" viewBox="0 0 23 23" fill="none" xmlns="http://www.w3.org/2000/svg">
<path d="M4.19992 15.4C2.79992 16.576 2.33325 20.0667 2.33325 20.0667C2.33325 20.0667 5.82392 19.6 6.99992 18.2C7.66259 17.416 7.65325 16.212 6.91592 15.484C6.55314 15.1378 6.07526 14.9377 5.574 14.9222C5.07273 14.9067 4.5834 15.0768 4.19992 15.4ZM11.1999 14L8.39992 11.2C8.89659 9.91149 9.52198 8.67635 10.2666 7.51335C11.3541 5.77454 12.8684 4.34287 14.6654 3.35451C16.4624 2.36614 18.4824 1.85397 20.5333 1.86669C20.5333 4.40535 19.8053 8.86669 14.9333 12.1334C13.7542 12.8786 12.5035 13.5039 11.1999 14Z" stroke="#00EF52" stroke-width="1.4" stroke-linecap="round" stroke-linejoin="round"/>
<path d="M8.39982 11.2001H3.73315C3.73315 11.2001 4.24649 8.37213 5.59982 7.4668C7.11182 6.4588 10.2665 7.4668 10.2665 7.4668M11.1998 14.0001V18.6668C11.1998 18.6668 14.0278 18.1535 14.9332 16.8001C15.9412 15.2881 14.9332 12.1335 14.9332 12.1335" stroke="#00EF52" stroke-width="1.4" stroke-linecap="round" stroke-linejoin="round"/>
</svg>
