<svg width="32" height="32" viewBox="0 0 32 32" fill="none" xmlns="http://www.w3.org/2000/svg">
<g clip-path="url(#clip0_36_813)">
<path fill-rule="evenodd" clip-rule="evenodd" d="M10.6667 7.33333C10.6665 6.81639 10.8166 6.31055 11.0987 5.87736C11.3808 5.44417 11.7827 5.1023 12.2555 4.89336C12.7283 4.68442 13.2517 4.61742 13.7619 4.7005C14.2721 4.78358 14.7472 5.01317 15.1293 5.36133C15.1418 5.38267 15.1551 5.40311 15.1693 5.42267L15.82 6.36933C15.9615 6.73456 16.0207 7.12646 15.9936 7.51717C15.9665 7.90789 15.8536 8.28784 15.663 8.63001C15.4725 8.97218 15.2088 9.26816 14.8909 9.49693C14.573 9.7257 14.2086 9.88164 13.8237 9.95365C13.4387 10.0257 13.0426 10.012 12.6635 9.91361C12.2844 9.81523 11.9316 9.63454 11.6302 9.3844C11.3288 9.13426 11.0863 8.8208 10.9197 8.46631C10.7532 8.11182 10.6668 7.72499 10.6667 7.33333ZM8.71333 4.66667H1.33333C0.979711 4.66667 0.640573 4.52619 0.390524 4.27614C0.140476 4.02609 0 3.68696 0 3.33333C0 2.97971 0.140476 2.64057 0.390524 2.39052C0.640573 2.14048 0.979711 2 1.33333 2H13.3333C14.3475 1.99966 15.3407 2.28847 16.1965 2.83258C17.0524 3.37668 17.7353 4.15352 18.1653 5.072L21.1 9.33333H26.6667V7.33333C26.6669 7.05729 26.7528 6.78812 26.9125 6.56297C27.0722 6.33782 27.2978 6.16779 27.5583 6.07634C27.8187 5.98489 28.1011 5.97653 28.3666 6.05241C28.632 6.1283 28.8673 6.28469 29.04 6.5L31.7 9.824C31.895 10.0615 32.0016 10.3593 32.0016 10.6667C32.0016 10.974 31.895 11.2718 31.7 11.5093L29.0413 14.8333C28.8687 15.0492 28.6333 15.206 28.3677 15.2823C28.102 15.3585 27.8193 15.3503 27.5585 15.2587C27.2977 15.1672 27.0718 14.9969 26.9121 14.7714C26.7523 14.5459 26.6665 14.2764 26.6667 14V12H20.4C20.1838 12.0001 19.9708 11.9475 19.7794 11.847C19.588 11.7464 19.4239 11.6008 19.3013 11.4227L18.1147 9.69867C17.7964 10.3372 17.3533 10.9055 16.8115 11.3697C16.2697 11.8339 15.6403 12.1847 14.9605 12.4014C14.2807 12.618 13.5644 12.696 12.8539 12.6308C12.1434 12.5656 11.4532 12.3585 10.8242 12.0218C10.1952 11.6851 9.64012 11.2255 9.19188 10.6705C8.74364 10.1154 8.41133 9.47598 8.21463 8.79016C8.01793 8.10434 7.96083 7.38602 8.04672 6.67773C8.13261 5.96945 8.35841 5.2856 8.71333 4.66667ZM10.6667 24.6667C10.6668 24.275 10.7532 23.8882 10.9197 23.5337C11.0863 23.1792 11.3288 22.8657 11.6302 22.6156C11.9316 22.3655 12.2844 22.1848 12.6635 22.0864C13.0426 21.988 13.4387 21.9743 13.8237 22.0463C14.2086 22.1184 14.573 22.2743 14.8909 22.5031C15.2088 22.7318 15.4725 23.0278 15.663 23.37C15.8536 23.7122 15.9665 24.0921 15.9936 24.4828C16.0207 24.8735 15.9615 25.2654 15.82 25.6307L15.168 26.5773L15.128 26.6387C14.7458 26.9864 14.2709 27.2156 13.7609 27.2985C13.2509 27.3813 12.7278 27.3142 12.2552 27.1053C11.7827 26.8964 11.3809 26.5547 11.0989 26.1218C10.8169 25.6889 10.6667 25.1833 10.6667 24.6667ZM18.1653 26.928C17.7353 27.8465 17.0524 28.6233 16.1965 29.1674C15.3407 29.7115 14.3475 30.0003 13.3333 30H1.33333C0.979711 30 0.640573 29.8595 0.390524 29.6095C0.140476 29.3594 0 29.0203 0 28.6667C0 28.313 0.140476 27.9739 0.390524 27.7239C0.640573 27.4738 0.979711 27.3333 1.33333 27.3333H8.71333C8.35841 26.7144 8.13128 26.0306 8.04539 25.3223C7.9595 24.614 8.01659 23.8957 8.21329 23.2098C8.41 22.524 8.7423 21.8846 9.19055 21.3295C9.63879 20.7745 10.1938 20.3149 10.8229 19.9782C11.4519 19.6415 12.1421 19.4344 12.8526 19.3692C13.563 19.304 14.2794 19.382 14.9592 19.5986C15.639 19.8153 16.2684 20.1661 16.8102 20.6303C17.352 21.0945 17.7951 21.6628 18.1133 22.3013L19.3013 20.5773C19.4239 20.3992 19.588 20.2536 19.7794 20.153C19.9708 20.0525 20.1838 19.9999 20.4 20H26.6667V18C26.6669 17.724 26.7528 17.4548 26.9125 17.2296C27.0722 17.0045 27.2978 16.8345 27.5583 16.743C27.8187 16.6516 28.1011 16.6432 28.3666 16.7191C28.632 16.795 28.8673 16.9514 29.04 17.1667L31.7 20.4907C31.895 20.7282 32.0016 21.026 32.0016 21.3333C32.0016 21.6407 31.895 21.9385 31.7 22.176L29.0413 25.5C28.8687 25.7158 28.6333 25.8727 28.3677 25.9489C28.102 26.0251 27.8193 26.0169 27.5585 25.9254C27.2977 25.8339 27.0718 25.6636 26.9121 25.4381C26.7523 25.2126 26.6665 24.943 26.6667 24.6667V22.6667H21.1L18.1653 26.928Z" fill="#00EF52"/>
</g>
<defs>
<clipPath id="clip0_36_813">
<rect width="32" height="32" fill="white"/>
</clipPath>
</defs>
</svg>
