<svg width="19" height="20" viewBox="0 0 19 20" fill="none" xmlns="http://www.w3.org/2000/svg">
<path d="M0.750977 9.22003V11.338C0.750845 11.8943 0.86029 12.4451 1.07306 12.959C1.28583 13.4729 1.59776 13.9399 1.99103 14.3333C2.38429 14.7266 2.8512 15.0387 3.36508 15.2516C3.87896 15.4645 4.42974 15.574 4.98598 15.574H17.691M0.750977 3.92603H13.456C14.0123 3.92589 14.5632 4.03537 15.0772 4.2482C15.5912 4.46104 16.0582 4.77305 16.4516 5.16643C16.8449 5.5598 17.157 6.02683 17.3698 6.54082C17.5826 7.05482 17.6921 7.60571 17.692 8.16202V10.279" stroke="#00EF52" stroke-width="1.5" stroke-linecap="round" stroke-linejoin="round"/>
<path d="M14.515 12.397L17.692 15.573L14.515 18.75M3.927 7.103L0.75 3.926L3.927 0.75" stroke="#00EF52" stroke-width="1.5" stroke-linecap="round" stroke-linejoin="round"/>
</svg>
