<svg width="23" height="23" viewBox="0 0 23 23" fill="none" xmlns="http://www.w3.org/2000/svg">
<path d="M11.2001 16.1233L7.32678 18.4567C7.15567 18.5656 6.97678 18.6122 6.79011 18.5967C6.60345 18.5811 6.44011 18.5189 6.30011 18.41C6.16011 18.3011 6.05122 18.1652 5.97344 18.0021C5.89567 17.8391 5.88011 17.6562 5.92678 17.4533L6.95344 13.0433L3.52345 10.08C3.36789 9.94 3.27082 9.7804 3.23225 9.6012C3.19367 9.422 3.20518 9.24716 3.26678 9.07667C3.32838 8.90618 3.42171 8.76618 3.54678 8.65667C3.67184 8.54716 3.84296 8.47716 4.06011 8.44667L8.58678 8.05L10.3368 3.89667C10.4146 3.71 10.5353 3.57 10.6989 3.47667C10.8626 3.38334 11.0296 3.33667 11.2001 3.33667C11.3706 3.33667 11.5377 3.38334 11.7013 3.47667C11.865 3.57 11.9857 3.71 12.0634 3.89667L13.8134 8.05L18.3401 8.44667C18.5579 8.47778 18.729 8.54778 18.8534 8.65667C18.9779 8.76556 19.0712 8.90556 19.1334 9.07667C19.1957 9.24778 19.2075 9.42294 19.1689 9.60214C19.1303 9.78134 19.033 9.94063 18.8768 10.08L15.4468 13.0433L16.4734 17.4533C16.5201 17.6556 16.5046 17.8385 16.4268 18.0021C16.349 18.1658 16.2401 18.3017 16.1001 18.41C15.9601 18.5183 15.7968 18.5805 15.6101 18.5967C15.4234 18.6128 15.2446 18.5662 15.0734 18.4567L11.2001 16.1233Z" fill="#00EF52"/>
</svg>
