<svg width="23" height="23" viewBox="0 0 23 23" fill="none" xmlns="http://www.w3.org/2000/svg">
<path d="M15.4002 9.75635H7.0002C6.90395 9.75635 6.8252 9.8351 6.8252 9.93135V18.7251C6.8252 18.8213 6.90395 18.9001 7.0002 18.9001H15.4002C15.4964 18.9001 15.5752 18.8213 15.5752 18.7251V9.93135C15.5752 9.8351 15.4964 9.75635 15.4002 9.75635ZM8.2252 11.1563H14.1752V13.7157H8.2252V11.1563ZM14.1752 17.5001H8.2252V14.9407H14.1752V17.5001Z" fill="#00EF52"/>
<path d="M9.2749 16.3625C9.2749 16.5482 9.34865 16.7262 9.47993 16.8575C9.6112 16.9888 9.78925 17.0625 9.9749 17.0625C10.1606 17.0625 10.3386 16.9888 10.4699 16.8575C10.6012 16.7262 10.6749 16.5482 10.6749 16.3625C10.6749 16.1769 10.6012 15.9988 10.4699 15.8676C10.3386 15.7363 10.1606 15.6625 9.9749 15.6625C9.78925 15.6625 9.6112 15.7363 9.47993 15.8676C9.34865 15.9988 9.2749 16.1769 9.2749 16.3625ZM9.2749 12.4688C9.2749 12.6545 9.34865 12.8325 9.47993 12.9638C9.6112 13.095 9.78925 13.1688 9.9749 13.1688C10.1606 13.1688 10.3386 13.095 10.4699 12.9638C10.6012 12.8325 10.6749 12.6545 10.6749 12.4688C10.6749 12.2831 10.6012 12.1051 10.4699 11.9738C10.3386 11.8425 10.1606 11.7688 9.9749 11.7688C9.78925 11.7688 9.6112 11.8425 9.47993 11.9738C9.34865 12.1051 9.2749 12.2831 9.2749 12.4688Z" fill="#00EF52"/>
<path d="M17.7493 8.06964C16.7475 5.42495 14.1947 3.5437 11.2043 3.5437C8.21403 3.5437 5.66122 5.42276 4.65934 8.06745C2.7759 8.56401 1.38903 10.2856 1.39997 12.3287C1.41309 14.6125 3.18497 16.4696 5.41622 16.6687C5.51903 16.6775 5.60653 16.5965 5.60653 16.4937V15.1725C5.60653 15.085 5.5409 15.0106 5.4534 14.9996C4.86278 14.9253 4.30497 14.6671 3.87622 14.245C3.35122 13.7309 3.06247 13.0396 3.06247 12.3068C3.06247 11.6943 3.26153 11.1168 3.63559 10.6356C4.0009 10.1675 4.51497 9.82839 5.08153 9.67964L5.91059 9.46089L6.21465 8.65808C6.40278 8.15933 6.66528 7.6912 6.99559 7.26901C7.32153 6.84901 7.70872 6.48151 8.14184 6.17526C9.0409 5.54308 10.0997 5.20839 11.2043 5.20839C12.309 5.20839 13.3678 5.54308 14.2668 6.17745C14.7022 6.4837 15.0872 6.8512 15.4131 7.2712C15.7434 7.69339 16.0059 8.16151 16.194 8.66026L16.4959 9.46089L17.3228 9.67964C18.5084 9.99464 19.3375 11.0731 19.3375 12.3046C19.3375 13.0396 19.0487 13.7287 18.5237 14.2428C18.0972 14.6628 17.5415 14.9231 16.9509 14.9975C16.8634 15.0084 16.8 15.0828 16.8 15.1703V16.4937C16.8 16.5965 16.8897 16.6775 16.9925 16.6687C19.2172 16.4675 20.9847 14.6125 21 12.3331C21.0131 10.29 19.6284 8.56839 17.7493 8.06964Z" fill="#00EF52"/>
</svg>
