<svg width="35" height="24" viewBox="0 0 35 24" fill="none" xmlns="http://www.w3.org/2000/svg">
<rect x="0.5" y="0.5" width="34" height="23" rx="3.5" fill="white" stroke="#D9D9D9"/>
<path d="M11.9174 12.5557C11.6368 13.9083 10.4184 14.9255 8.95822 14.9255C8.62319 14.9255 8.30071 14.8718 7.99983 14.7728L7.3291 16.7408C7.84097 16.9091 8.38864 17.0001 8.95822 17.0001C11.4403 17.0001 13.5107 15.2705 13.9878 12.972L11.9174 12.5557Z" fill="#EC412A"/>
<path fill-rule="evenodd" clip-rule="evenodd" d="M23.9529 8.11108V13.8014L24.9741 14.2107L24.491 15.333L23.4812 14.9271C23.2541 14.8319 23.1005 14.6868 22.9837 14.523C22.8716 14.3553 22.7885 14.1262 22.7885 13.817V8.11108H23.9529ZM16.2084 12.3403C16.2337 10.7131 17.6195 9.41411 19.3011 9.43904C20.7283 9.46068 21.9108 10.4273 22.2214 11.7131L16.7014 13.9944C16.3808 13.5204 16.1986 12.9502 16.2084 12.3403ZM17.4714 12.5684C17.4638 12.5002 17.4585 12.4302 17.4605 12.3595C17.4763 11.4008 18.2922 10.6358 19.2829 10.6517C19.8222 10.6586 20.301 10.8974 20.6247 11.267L17.4714 12.5684ZM20.5085 13.6248C20.1758 13.9377 19.7247 14.1284 19.2265 14.1216C18.8851 14.116 18.5687 14.0172 18.2998 13.8525L17.6329 14.8799C18.0896 15.1591 18.6281 15.3242 19.2086 15.3329C20.0536 15.3451 20.8238 15.0241 21.3839 14.4941L20.5085 13.6248ZM28.2028 10.6516C28.0039 10.6516 27.8128 10.6827 27.6342 10.7407L27.2368 9.58932C27.5401 9.49139 27.8649 9.4382 28.2028 9.4382C29.6777 9.4382 30.908 10.4513 31.1902 11.797L29.9602 12.0395C29.7944 11.2475 29.0706 10.6516 28.2028 10.6516ZM26.1834 14.5935L27.0145 13.6847C26.6433 13.3669 26.4095 12.9028 26.4095 12.3855C26.4095 11.8687 26.6433 11.4049 27.0141 11.0873L26.1824 10.1785C25.5519 10.7185 25.1546 11.5075 25.1546 12.3855C25.1546 13.2646 25.5522 14.0534 26.1834 14.5935ZM28.2028 14.12C29.0698 14.12 29.7935 13.5247 29.9602 12.7338L31.1898 12.9773C30.9063 14.3216 29.6763 15.3333 28.2028 15.3333C27.8645 15.3333 27.5394 15.28 27.2353 15.1816L27.6336 14.0306C27.8125 14.0884 28.0037 14.12 28.2028 14.12Z" fill="black"/>
<path d="M5.53441 15.8889L6.77447 14.2877C6.22095 13.7278 5.87158 12.9104 5.87158 11.9993C5.87158 11.0889 6.22062 10.2715 6.77399 9.71206L5.53327 8.11108C4.59271 9.0623 4 10.4518 4 11.9993C4 13.5477 4.59358 14.9376 5.53441 15.8889" fill="#1BA7DE"/>
<path d="M7.99887 9.22531C8.29973 9.12667 8.62158 9.07312 8.95647 9.07312C10.418 9.07312 11.6371 10.0915 11.9168 11.4444L13.9878 11.0302C13.5126 8.73084 11.4408 7 8.95647 7C8.38768 7 7.84018 7.0909 7.3291 7.25834L7.99887 9.22531Z" fill="#FECA2F"/>
</svg>
