<svg width="39" height="39" viewBox="0 0 39 39" fill="none" xmlns="http://www.w3.org/2000/svg">
<path d="M19.3093 11.2637C22.7234 11.2637 25.9977 12.6199 28.4118 15.034C30.8259 17.4481 32.1821 20.7224 32.1821 24.1365C32.1821 27.5506 30.8259 30.8248 28.4118 33.2389C25.9977 35.653 22.7234 37.0093 19.3093 37.0093C15.8953 37.0093 12.621 35.653 10.2069 33.2389C7.79276 30.8248 6.43652 27.5506 6.43652 24.1365C6.43652 20.7224 7.79276 17.4481 10.2069 15.034C12.621 12.6199 15.8953 11.2637 19.3093 11.2637ZM19.3093 14.4819C16.7488 14.4819 14.2931 15.4991 12.4825 17.3096C10.6719 19.1202 9.65473 21.5759 9.65473 24.1365C9.65473 26.697 10.6719 29.1527 12.4825 30.9633C14.2931 32.7739 16.7488 33.7911 19.3093 33.7911C21.8699 33.7911 24.3256 32.7739 26.1362 30.9633C27.9468 29.1527 28.9639 26.697 28.9639 24.1365C28.9639 21.5759 27.9468 19.1202 26.1362 17.3096C24.3256 15.4991 21.8699 14.4819 19.3093 14.4819ZM19.3093 16.8955L21.4366 21.2079L26.1963 21.8998L22.7528 25.2548L23.5654 29.9952L19.3093 27.757L15.0533 29.9936L15.8659 25.2548L12.4224 21.8982L17.1821 21.2063L19.3093 16.8955ZM28.9639 3.21816V8.04547L26.7707 9.87662C24.9513 8.92044 22.964 8.32539 20.9184 8.12431V3.21816H28.9639ZM17.7002 3.21655V8.12431C15.6553 8.3251 13.6686 8.91959 11.8495 9.87501L9.65473 8.04547V3.21816L17.7002 3.21655Z" fill="#0939CF"/>
</svg>
