<svg width="23" height="23" viewBox="0 0 23 23" fill="none" xmlns="http://www.w3.org/2000/svg">
<g clip-path="url(#clip0_46_1271)">
<mask id="mask0_46_1271" style="mask-type:luminance" maskUnits="userSpaceOnUse" x="1" y="2" width="23" height="18">
<path d="M5.2638 18.0694C1.97847 14.7934 1.97847 9.4734 5.2638 6.1974C8.5398 2.91206 13.8598 2.91206 17.1358 6.1974C20.4211 9.4734 20.4211 14.7934 17.1358 18.0694" stroke="white" stroke-width="1.86667" stroke-linecap="round" stroke-linejoin="round"/>
<path d="M13.1721 16.3628C10.8375 17.4515 8.05915 16.4403 6.97049 14.1056C5.88182 11.771 6.89306 8.99262 9.22771 7.90396C11.5624 6.8153 23.8882 6.21674 23.8882 6.21674C23.8882 6.21674 15.5068 15.2742 13.1721 16.3628Z" fill="black"/>
</mask>
<g mask="url(#mask0_46_1271)">
<path d="M0 0H22.4V22.4H0V0Z" fill="#00EF52"/>
</g>
<path d="M12.3832 14.671C10.979 15.3258 9.31697 14.7209 8.6622 13.3167C8.00742 11.9125 8.61236 10.2505 10.0165 9.59572C11.4207 8.94094 20.5046 7.7945 20.5046 7.7945C20.5046 7.7945 13.7874 14.0163 12.3832 14.671Z" fill="#00EF52"/>
</g>
<defs>
<clipPath id="clip0_46_1271">
<rect width="22.4" height="22.4" fill="white"/>
</clipPath>
</defs>
</svg>
