<svg width="32" height="32" viewBox="0 0 32 32" fill="none" xmlns="http://www.w3.org/2000/svg">
<path d="M24.8 8.82666C28.7733 8.82666 32 12 32 16C32 19.9467 28.7733 23.16 24.8 23.16C22.8667 23.16 21.0667 22.4133 19.7067 21.0667L16 17.7867L12.2267 21.1333C10.9333 22.4267 9.12 23.1733 7.2 23.1733C3.22667 23.1733 0 19.9467 0 16C0 12.0533 3.22667 8.82666 7.2 8.82666C9.12 8.82666 10.9333 9.57333 12.2933 10.9333L16 14.2133L19.7733 10.8667C21.0667 9.57333 22.88 8.82666 24.8 8.82666ZM10.4 19.1867L14 16L10.4533 12.8667C9.54667 11.96 8.41333 11.4933 7.2 11.4933C4.70667 11.4933 2.66667 13.5067 2.66667 16C2.66667 18.4933 4.70667 20.5067 7.2 20.5067C8.41333 20.5067 9.54667 20.04 10.4 19.1867ZM21.6 12.8133L18 16L21.5467 19.1333C22.4533 20.04 23.6 20.5067 24.8 20.5067C27.2933 20.5067 29.3333 18.4933 29.3333 16C29.3333 13.5067 27.2933 11.4933 24.8 11.4933C23.5867 11.4933 22.4533 11.96 21.6 12.8133Z" fill="#00EF52"/>
</svg>
