<svg width="116" height="32" viewBox="0 0 116 32" fill="none" xmlns="http://www.w3.org/2000/svg">
<g clip-path="url(#clip0_175_42)">
<path fill-rule="evenodd" clip-rule="evenodd" d="M24.5482 12.5454V21.6715C24.5482 22.0735 24.3626 22.4543 24.0427 22.7011C22.827 23.6427 21.4198 24.4572 19.8198 25.1472C17.9916 25.9348 15.9004 26.3297 13.5451 26.3297C11.5324 26.3297 9.69938 26.0029 8.04237 25.3482C6.38655 24.6935 4.96269 23.7849 3.77317 22.6212C2.58246 21.4575 1.65701 20.0752 0.994442 18.4755C0.331877 16.8745 0 15.129 0 13.2377V13.1649C0 11.3465 0.337825 9.64326 1.01228 8.05525C1.68675 6.46723 2.62528 5.07317 3.82789 3.87305C5.02931 2.67294 6.45317 1.72789 8.09709 1.03673C9.74101 0.345577 11.5443 0 13.507 0C14.6597 0 15.7089 0.078754 16.6533 0.236262C17.5978 0.39377 18.4757 0.618278 19.2846 0.90861C20.0946 1.19894 20.8547 1.56333 21.5661 1.99941C21.8861 2.19571 22.2001 2.40376 22.5094 2.62357C23.1327 3.06788 23.2504 3.93888 22.7592 4.52424L20.8773 6.76697C20.4348 7.29356 19.6545 7.397 19.0919 6.99736C18.9229 6.87746 18.754 6.76227 18.5851 6.65413C18.0939 6.33911 17.5847 6.07229 17.0578 5.85366C16.5296 5.63503 15.9598 5.46577 15.346 5.3447C14.7323 5.22363 14.0578 5.1625 13.3215 5.1625C12.2914 5.1625 11.3278 5.37526 10.4321 5.80076C9.53641 6.22627 8.75133 6.79753 8.07687 7.51455C7.40122 8.23156 6.87426 9.06964 6.4948 10.03C6.11415 10.9891 5.92383 12.0165 5.92383 13.1096V13.1825C5.92383 14.3497 6.11296 15.424 6.4948 16.4079C6.87545 17.3917 7.4143 18.2486 8.11374 18.9774C8.81318 19.7061 9.63515 20.2715 10.5796 20.6723C11.5241 21.0732 12.5733 21.273 13.7271 21.273C15.5221 21.273 17.0756 20.9027 18.3912 20.161C18.8064 19.9271 19.0633 19.4922 19.0633 19.0209V17.3811C19.0633 16.6594 18.4709 16.0729 17.7394 16.0729H14.6823C13.9507 16.0729 13.3584 15.4875 13.3584 14.7646V12.5431C13.3584 11.8213 13.9507 11.2348 14.6823 11.2348H23.2243C23.9558 11.2348 24.547 11.8202 24.547 12.5431L24.5482 12.5454ZM32.3884 0.436086H29.367C28.6354 0.436086 28.043 1.02145 28.043 1.74317V24.5854C28.043 25.3083 28.6354 25.8936 29.367 25.8936H32.3884C33.1187 25.8936 33.7123 25.3083 33.7123 24.5854V1.74434C33.7123 1.02263 33.1199 0.437261 32.3884 0.437261V0.436086ZM60.178 11.2371H51.636C50.9057 11.2371 50.3121 11.8225 50.3121 12.5454V14.767C50.3121 15.4887 50.9045 16.0741 51.636 16.0741H54.6943C55.4247 16.0741 56.0171 16.6594 56.0171 17.3823V19.022C56.0171 19.4934 55.7601 19.9283 55.345 20.1622C54.0294 20.9039 52.4747 21.2742 50.6809 21.2742C49.527 21.2742 48.4779 21.0743 47.5334 20.6735C46.5889 20.2727 45.7669 19.7073 45.0675 18.9785C44.3681 18.2498 43.828 17.3929 43.4486 16.4091C43.0679 15.4252 42.8788 14.3497 42.8788 13.1837V13.1108C42.8788 12.0176 43.0679 10.9903 43.4486 10.0311C43.8292 9.07199 44.3562 8.23274 45.0318 7.51572C45.7063 6.79871 46.4914 6.22745 47.3871 5.80194C48.2828 5.37761 49.2451 5.16368 50.2764 5.16368C51.0127 5.16368 51.6872 5.2248 52.301 5.34587C52.9136 5.46694 53.4846 5.63738 54.0127 5.85483C54.5397 6.07346 55.0488 6.34029 55.5401 6.6553C55.709 6.76344 55.8779 6.87864 56.048 6.99853C56.6094 7.39818 57.391 7.29474 57.8335 6.76815L59.7153 4.52542C60.2066 3.94005 60.0888 3.06906 59.4655 2.62474C59.1562 2.40376 58.841 2.19571 58.5222 2.00059C57.8097 1.5645 57.0496 1.20012 56.2407 0.909786C55.4306 0.618278 54.5539 0.394946 53.6095 0.237438C52.665 0.0799295 51.6158 0.00117543 50.4632 0.00117543C48.5005 0.00117543 46.6971 0.346753 45.0532 1.03791C43.4093 1.72906 41.9854 2.67411 40.784 3.87423C39.5814 5.07435 38.6429 6.46841 37.9684 8.05642C37.2928 9.64443 36.9561 11.3476 36.9561 13.166V13.2389C36.9561 15.1302 37.2868 16.8757 37.9506 18.4755C38.6131 20.0764 39.5386 21.4575 40.7293 22.6212C41.9188 23.7849 43.3415 24.6947 44.9985 25.3482C46.6543 26.0029 48.4886 26.3297 50.5012 26.3297C52.8565 26.3297 54.9477 25.9348 56.776 25.1472C58.3759 24.4572 59.7843 23.6427 60.9988 22.7011C61.3188 22.4531 61.5043 22.0735 61.5043 21.6715V12.5454C61.5043 11.8237 60.912 11.2371 60.1816 11.2371H60.178ZM89.0561 24.0741L79.1414 1.04966C78.9332 0.567734 78.4539 0.253894 77.9233 0.253894H74.4475C74.3976 0.253894 74.3476 0.259771 74.2977 0.264473V0.253894C73.766 0.253894 73.2878 0.567734 73.0796 1.04966L63.1649 24.0729C62.7938 24.9356 63.4337 25.8924 64.383 25.8924H67.4198C67.9575 25.8924 68.4428 25.5704 68.6451 25.0779L74.8865 9.95122C75.3337 8.86629 76.8896 8.86629 77.3381 9.95122L83.5795 25.0779C83.7829 25.5704 84.2671 25.8924 84.8047 25.8924H87.8392C88.7885 25.8924 89.4284 24.9356 89.0573 24.0729L89.0561 24.0741Z" fill="white"/>
<path d="M80.2406 18.3697C80.3453 18.3697 80.4297 18.4543 80.4297 18.5577V20.1669C80.4297 20.2997 80.3203 20.4079 80.187 20.4079H78.5871C78.4658 20.4079 78.3683 20.3103 78.3683 20.1916V18.5554C78.3683 18.4531 78.4515 18.3708 78.555 18.3708H79.6755H80.2406M78.4254 15.8413H77.8603H76.7398C76.6363 15.8413 76.553 15.9236 76.553 16.0259V17.6621C76.553 17.7819 76.6518 17.8783 76.7719 17.8783H78.3718C78.5062 17.8783 78.6145 17.7702 78.6145 17.6374V16.0282C78.6145 15.9248 78.5288 15.8401 78.4254 15.8401M76.333 18.593H75.8298H74.8318C74.7402 18.593 74.6653 18.667 74.6653 18.7576V20.2151C74.6653 20.3221 74.7533 20.4079 74.8604 20.4079H76.2842C76.4032 20.4079 76.5007 20.3115 76.5007 20.1939V18.7611C76.5007 18.6694 76.4246 18.5942 76.3318 18.5942M74.1752 16.3514H73.7886H73.0225C72.9524 16.3514 72.8953 16.4079 72.8953 16.4772V17.5962C72.8953 17.6785 72.9619 17.7443 73.0451 17.7443H74.1383C74.2299 17.7443 74.3048 17.6703 74.3048 17.5798V16.4796C74.3048 16.409 74.2466 16.3514 74.1752 16.3514ZM81.58 15.0197C81.693 15.0197 81.7858 14.9292 81.7858 14.8163V13.2107C81.7858 13.0826 81.6799 12.978 81.5502 12.978H79.9027C79.8016 12.978 79.7196 13.0591 79.7196 13.159V14.861C79.7196 14.948 79.7909 15.0185 79.879 15.0185H80.739H81.58V15.0197ZM83.6795 15.531H81.4586C81.329 15.531 81.2231 15.6356 81.2231 15.7637V17.9688C81.2231 18.0911 81.3242 18.191 81.4479 18.191H83.6902C83.8139 18.191 83.915 18.0911 83.915 17.9688V15.7649C83.915 15.6368 83.8091 15.5322 83.6795 15.5322M115.252 12.6653H106.062C105.57 12.6653 105.212 12.2057 105.34 11.7367L107.792 2.65059C107.918 2.18159 107.562 1.72083 107.07 1.72083H99.8796C99.5406 1.72083 99.2444 1.94533 99.1576 2.26975L96.5002 12.1175C96.4133 12.4408 96.1171 12.6653 95.7781 12.6653H84.3302C84.1553 12.6653 84.0137 12.8052 84.0137 12.978V15.1419C84.0137 15.2548 84.2255 15.4405 84.3278 15.4405H86.5308C86.7044 15.4405 86.8448 15.5792 86.8448 15.7508V17.9277C86.8448 18.0993 86.7044 18.238 86.5308 18.238H84.3278C83.9697 18.238 84.0137 18.5084 84.0137 18.5777V20.7288C84.0137 20.9098 84.1624 21.0555 84.3444 21.0555H93.1029C93.5942 21.0555 93.9522 21.5163 93.8249 21.9841L91.3733 31.0702C91.371 31.0784 91.3686 31.0879 91.3662 31.0961C91.2413 31.551 91.5815 32 92.0585 32H99.2848C99.6239 32 99.9201 31.7755 100.007 31.4522L102.664 21.6045C102.751 21.2812 103.047 21.0567 103.386 21.0567H113.376C113.714 21.0567 114.01 20.8322 114.098 20.509L115.974 13.5962C116.101 13.1272 115.743 12.6665 115.252 12.6665" fill="#00EF52"/>
<path d="M66.3076 27.2878H69.9035L69.6478 28.2211H67.0903L66.8215 29.2144H69.0744L68.8246 30.1477H66.5717L66.0792 31.9543H65.0396L66.3088 27.2878H66.3076Z" fill="#00EF52"/>
<path d="M71.6105 27.2878H72.649L71.381 31.9543H70.3413L71.6105 27.2878Z" fill="#00EF52"/>
<path d="M74.6115 27.2878H76.4469C77.5532 27.2878 78.0457 27.8086 78.0457 28.4351C78.0457 29.0616 77.6472 29.4553 77.0334 29.5882C77.4319 29.768 77.6936 30.0548 77.6936 30.5344C77.6936 31.3678 76.9715 31.9543 75.663 31.9543H73.3423L74.6103 27.2878H74.6115ZM75.8189 31.0551C76.3387 31.0551 76.6622 30.8353 76.6622 30.4686C76.6622 30.1947 76.4458 30.029 76.014 30.029H74.8744L74.5972 31.0563H75.8189V31.0551ZM76.1567 29.1744C76.6967 29.1744 77.0072 29.0016 77.0072 28.6079C77.0072 28.3681 76.8109 28.187 76.353 28.187H75.374L75.1111 29.1732H76.1567V29.1744Z" fill="#00EF52"/>
<path d="M81.1813 30.4616H80.4057L80.0001 31.9555H78.9604L80.2297 27.2891H81.9509C82.6527 27.2891 83.1309 27.4419 83.4485 27.7557C83.6912 27.9955 83.8125 28.3093 83.8125 28.6961C83.8125 29.1498 83.6579 29.5294 83.3807 29.8033C83.1987 29.9832 82.8811 30.23 82.2876 30.3628L83.0905 31.9567H81.9093L81.1813 30.4627V30.4616ZM81.5798 29.5553C81.9842 29.5553 82.322 29.4624 82.5314 29.2556C82.6599 29.1286 82.7277 28.9688 82.7277 28.7819C82.7277 28.6291 82.6801 28.508 82.579 28.4081C82.4505 28.2811 82.2209 28.2141 81.8902 28.2141H81.0207L80.6567 29.5541H81.581L81.5798 29.5553Z" fill="#00EF52"/>
<path d="M87.4145 27.2549H88.4125L89.1619 31.9554H88.0961L87.9474 30.9081H85.9502L85.2353 31.9554H84.116L87.4145 27.2549ZM87.8261 30.0019L87.6096 28.4621L86.57 30.0019H87.8249H87.8261Z" fill="#00EF52"/>
</g>
<defs>
<clipPath id="clip0_175_42">
<rect width="116" height="32" fill="white"/>
</clipPath>
</defs>
</svg>
