<svg width="167" height="117" viewBox="0 0 167 117" fill="none" xmlns="http://www.w3.org/2000/svg">
<path d="M28.458 64.3318C28.8635 64.3318 29.1908 64.6589 29.1908 65.0585V71.2764C29.1908 71.7897 28.7667 72.2075 28.2506 72.2075H22.052C21.582 72.2075 21.2041 71.8306 21.2041 71.3718V65.0495C21.2041 64.6543 21.5267 64.3364 21.9276 64.3364H26.2689H28.458M21.4253 54.5622H19.2362H14.8949C14.494 54.5622 14.1714 54.8801 14.1714 55.2752V61.5976C14.1714 62.0609 14.5539 62.4333 15.0194 62.4333H21.2179C21.7387 62.4333 22.1581 62.0155 22.1581 61.5022V55.2843C22.1581 54.8846 21.8262 54.5576 21.4253 54.5576M13.3188 65.1948H11.3694H7.50278C7.14792 65.1948 6.85757 65.4809 6.85757 65.8307V71.4627C6.85757 71.876 7.19861 72.2075 7.61338 72.2075H13.1298C13.5907 72.2075 13.9686 71.8351 13.9686 71.3809V65.8443C13.9686 65.49 13.6737 65.1993 13.3142 65.1993M4.95884 56.5334H3.46105H0.493121C0.221215 56.5334 0 56.7514 0 57.0193V61.3432C0 61.6612 0.258085 61.9155 0.580685 61.9155H4.81597C5.17083 61.9155 5.46115 61.6294 5.46115 61.2797V57.0284C5.46115 56.7559 5.23535 56.5334 4.95884 56.5334ZM33.6472 51.3873C34.0851 51.3873 34.4445 51.0376 34.4445 50.6016V44.3973C34.4445 43.9023 34.0344 43.498 33.532 43.498H27.1491C26.7574 43.498 26.4394 43.8114 26.4394 44.1975V50.7742C26.4394 51.1103 26.7159 51.3828 27.057 51.3828H30.389H33.6472V51.3873ZM41.7814 53.3631H33.1772C32.6748 53.3631 32.2647 53.7673 32.2647 54.2624V62.783C32.2647 63.2554 32.6564 63.6415 33.1357 63.6415H41.8229C42.3021 63.6415 42.6939 63.2554 42.6939 62.783V54.2669C42.6939 53.7719 42.2837 53.3676 41.7814 53.3676M164.102 42.2899H128.496C126.593 42.2899 125.206 40.514 125.699 38.7017L135.202 3.59266C135.69 1.78043 134.308 0 132.404 0H104.546C103.232 0 102.085 0.867507 101.748 2.12108L91.4526 40.1733C91.1162 41.4224 89.9687 42.2899 88.6552 42.2899H44.3023C43.6248 42.2899 43.0764 42.8304 43.0764 43.498V51.8597C43.0764 52.2957 43.8967 53.0134 44.293 53.0134H52.8281C53.501 53.0134 54.0448 53.5493 54.0448 54.2124V62.6241C54.0448 63.2872 53.501 63.8231 52.8281 63.8231H44.293C42.9059 63.8231 43.0764 64.8678 43.0764 65.1358V73.4475C43.0764 74.1469 43.6525 74.7101 44.3576 74.7101H78.2905C80.1939 74.7101 81.5811 76.4906 81.088 78.2983L71.5897 113.407C71.5805 113.439 71.5712 113.475 71.562 113.507C71.0781 115.265 72.3962 117 74.2442 117H102.241C103.555 117 104.702 116.132 105.039 114.883L115.334 76.8312C115.671 75.5822 116.818 74.7147 118.132 74.7147H156.835C158.143 74.7147 159.291 73.8472 159.632 72.5981L166.9 45.8871C167.393 44.0748 166.006 42.2944 164.102 42.2944" fill="#00EF52"/>
</svg>
